<svg width="1101" height="599" viewBox="0 0 1101 599" fill="none" xmlns="http://www.w3.org/2000/svg">
<g clip-path="url(#clip0)">
<path d="M365.002 0L227.735 283.55H504.564L365.002 0Z" fill="#DA9A3A" stroke="#DA9A3A" stroke-width="2"/>
<path d="M578.709 41.0978L638.416 178.527L701.472 41.0978H770.224V283.636H710.302V145.151L660.841 260.823H617.784L562.212 145.151V283.636H508.021V41.0978H578.709Z" fill="#DA9A3A" stroke="#DA9A3A" stroke-width="2"/>
<path d="M792.419 41.0978V281.602H977.638V236.037H855.081V191.135H965.354V137.741H855.71V94.3625H977.638V41.0978H792.419Z" fill="#DA9A3A" stroke="#DA9A3A" stroke-width="2"/>
<path d="M152.321 599C231.763 599 296.163 534.6 296.163 455.158C296.163 375.716 231.763 311.316 152.321 311.316C72.8789 311.316 8.47852 375.716 8.47852 455.158C8.47852 534.6 72.8789 599 152.321 599Z" fill="#DA9A3A"/>
<path d="M152.321 596.945C230.627 596.945 294.108 533.465 294.108 455.158C294.108 376.851 230.627 313.37 152.321 313.37C74.0135 313.37 10.5332 376.851 10.5332 455.158C10.5332 533.465 74.0135 596.945 152.321 596.945Z" stroke="#DA9A3A" stroke-width="2"/>
<path d="M251.983 324.672L385.139 598.616H409.901L522.71 358.578V593.947C522.71 597.911 528.398 598.308 528.398 598.308L799.896 598.591C801.768 598.568 803.58 597.931 805.054 596.777C806.068 595.273 806.515 593.459 806.318 591.656V524.798L863.998 598.614L953.18 598.367C953.18 598.367 959.507 597.531 961.988 593.351C962.864 591.939 963.435 590.359 963.664 588.713C963.893 587.067 963.774 585.391 963.315 583.794L902.729 492.267C902.729 492.267 919.805 482.798 929.264 468.478C935.664 458.785 940.023 447.891 942.074 436.458C942.668 432.692 944.024 387.112 942.074 380.645C940.124 374.179 922.248 348.85 902.731 331.238C896.86 325.121 890.022 320.012 882.492 316.116C870.241 309.596 853.04 307.896 853.04 307.896H453.705L398.521 435.238L337.945 307.89H260.182C260.182 307.89 254.038 307.806 251.983 312C249.928 316.194 251.983 324.672 251.983 324.672Z" stroke="#DA9A3A" stroke-width="4"/>
<path d="M328.014 320.563L398.663 454.402L461.906 320.563H531.789L404.386 584.957H391.009L265.083 320.563H328.014Z" stroke="#DA9A3A" stroke-width="4"/>
<path d="M537.612 585.643H717.734V524.714H602.97L603.163 482.693H692.463V420.225H602.913V380.259H717.734V319.817H537.612V585.643Z" stroke="#DA9A3A" stroke-width="4"/>
<path d="M714.627 390.429H618.203V405.84H705.947V493.173H617.825L617.983 510.747H714.627V390.429Z" stroke="#DA9A3A" stroke-width="4"/>
<path d="M724.606 316.453L726.661 584.616H788.949V482.556L870.791 584.94L950.55 584.659L886.599 488.72C886.599 488.72 905.726 479.613 916.052 466.117C922.221 458.1 926.379 448.721 928.176 438.766V387.7C923.739 372.598 915.289 358.982 903.725 348.304C884.425 330.492 850.982 316.453 850.982 316.453H724.606Z" stroke="#DA9A3A" stroke-width="4"/>
<path d="M788.309 380.154V450.245H836.393C842.18 448.255 847.581 445.283 852.357 441.458C856.824 437.341 860.533 432.473 863.316 427.074V403.977C860.378 398.412 856.691 393.277 852.357 388.715C848.568 385.162 844.055 382.47 839.128 380.822H788.309" stroke="#DA9A3A" stroke-width="3"/>
<path d="M800.638 392.484V439.403H832.823C836.697 438.072 840.312 436.082 843.509 433.522C846.499 430.766 848.982 427.507 850.845 423.893V408.432C848.878 404.707 846.41 401.27 843.509 398.217C840.974 395.838 837.955 394.034 834.658 392.93H800.638" stroke="#DA9A3A" stroke-width="2"/>
<path d="M994.698 466.139L1026.42 498.631L1056.24 466.46H1083.19L1038.32 511.02L1081.35 555.985C1081.35 555.985 1082.59 557.162 1082.46 557.643C1082.33 558.124 1080.83 557.902 1080.83 557.902H1056.24L1026.42 521.942L994.825 557.902H971.052C971.052 557.902 970.489 557.654 970.417 557.271C970.346 556.889 970.765 556.369 970.765 556.369L1013.25 511.02L971.174 468.334C971.174 468.334 970.132 467.312 970.578 466.846C971.024 466.38 972.986 466.46 972.986 466.46H994.151" fill="#DA9A3A"/>
<path d="M994.698 466.139L1026.42 498.631L1056.24 466.46H1083.19L1038.32 511.02L1081.35 555.985C1081.35 555.985 1082.59 557.162 1082.46 557.643C1082.33 558.124 1080.83 557.902 1080.83 557.902H1056.24L1026.42 521.942L994.825 557.902H971.052C971.052 557.902 970.489 557.654 970.417 557.271C970.346 556.889 970.765 556.369 970.765 556.369L1013.25 511.02L971.174 468.334C971.174 468.334 970.132 467.312 970.578 466.846C971.024 466.38 972.986 466.46 972.986 466.46H994.151" stroke="#DA9A3A" stroke-width="2"/>
<path d="M231.736 79.818C221.028 70.7802 209.178 63.1901 196.49 57.243C176.535 48.1624 167.482 43.4958 153.556 40.9991C139.63 38.5024 112.894 37.7996 99.021 40.9991C85.1484 44.1986 76.5384 49.1426 57.6355 60.7219C45.5298 68.4728 34.9085 78.3271 26.2738 89.8191C19.7457 97.5945 14.4129 106.299 10.4512 115.647C6.36823 126.484 3.48379 137.735 1.8494 149.199C0.693805 155.486 0.075106 161.859 0 168.25C0.0963928 174.837 0.714798 181.406 1.8494 187.895C1.8494 187.895 5.88726 211.279 15.089 228.974C21.14 240.183 29.1185 250.238 38.6586 258.678C46.1217 267.033 55.2965 273.684 65.5592 278.178C82.4277 285.473 107.454 287.855 107.454 287.855H150.155C150.155 287.855 179.653 283.334 200.047 275.263C211.783 270.798 222.544 264.105 231.738 255.554V159.747H173.889V223.923C173.889 223.923 135.526 239.166 107.452 230.961C79.3783 222.756 61.8008 188.62 65.5571 154.731C69.3134 120.842 103.162 95.8297 122.478 95.4084C141.793 94.9872 148.665 95.2728 168.055 101.409C179.917 105.24 190.825 111.558 200.05 119.942L231.736 79.818Z" fill="#DA9A3A" stroke="#DA9A3A"/>
</g>
<defs>
<clipPath id="clip0">
<rect width="1101" height="599" fill="white"/>
</clipPath>
</defs>
</svg>
