<svg width="531" height="293" viewBox="0 0 531 293" fill="none" xmlns="http://www.w3.org/2000/svg">
<g clip-path="url(#clip0)">
<path d="M178.123 0.441986L111.323 138.43H246.04L178.123 0.441986Z" fill="#DA9A3A" stroke="#DA9A3A" stroke-width="2"/>
<path d="M282.123 20.442L311.179 87.321L341.865 20.442H375.323V138.472H346.162V71.079L322.092 127.37H301.139L274.095 71.079V138.472H247.723V20.442H282.123Z" fill="#DA9A3A" stroke="#DA9A3A" stroke-width="2"/>
<path d="M386.123 20.442V137.482H476.259V115.308H416.617V93.457H470.281V67.473H416.923V46.363H476.259V20.442H386.123Z" fill="#DA9A3A" stroke="#DA9A3A" stroke-width="2"/>
<path d="M74.623 291.942C113.283 291.942 144.623 260.602 144.623 221.942C144.623 183.282 113.283 151.942 74.623 151.942C35.9631 151.942 4.62305 183.282 4.62305 221.942C4.62305 260.602 35.9631 291.942 74.623 291.942Z" fill="#DA9A3A"/>
<path d="M74.623 290.942C112.731 290.942 143.623 260.05 143.623 221.942C143.623 183.834 112.731 152.942 74.623 152.942C36.5154 152.942 5.62305 183.834 5.62305 221.942C5.62305 260.05 36.5154 290.942 74.623 290.942Z" stroke="#DA9A3A" stroke-width="2"/>
<path d="M123.123 158.442L187.923 291.755H199.973L254.871 174.942V289.483C254.871 291.412 257.639 291.605 257.639 291.605L389.762 291.743C390.673 291.732 391.555 291.422 392.272 290.86C392.766 290.128 392.983 289.245 392.887 288.368V255.832L420.957 291.754L464.357 291.634C464.357 291.634 467.436 291.227 468.643 289.193C469.07 288.506 469.348 287.737 469.459 286.936C469.57 286.135 469.512 285.319 469.289 284.542L439.805 240.001C439.805 240.001 448.115 235.393 452.718 228.424C455.833 223.707 457.954 218.405 458.952 212.842C459.241 211.009 459.901 188.828 458.952 185.681C458.003 182.534 449.304 170.208 439.806 161.637C436.949 158.66 433.622 156.174 429.957 154.278C423.995 151.105 415.624 150.278 415.624 150.278H221.29L194.435 212.248L164.956 150.275H127.113C127.113 150.275 124.123 150.234 123.123 152.275C122.123 154.316 123.123 158.442 123.123 158.442Z" stroke="#DA9A3A" stroke-width="2"/>
<path d="M160.123 156.442L194.504 221.574L225.281 156.442H259.289L197.289 285.108H190.779L129.498 156.442H160.123Z" stroke="#DA9A3A" stroke-width="2"/>
<path d="M262.123 285.442H349.778V255.791H293.929L294.023 235.342H337.48V204.942H293.901V185.493H349.778V156.079H262.123V285.442Z" stroke="#DA9A3A" stroke-width="2"/>
<path d="M348.266 190.442H301.342V197.942H344.042V240.442H301.158L301.235 248.994H348.266V190.442Z" stroke="#DA9A3A" stroke-width="2"/>
<path d="M353.123 154.442L354.123 284.942H384.435V235.275L424.263 285.1L463.077 284.963L431.956 238.275C431.956 238.275 441.264 233.843 446.289 227.275C449.291 223.374 451.314 218.809 452.189 213.965V189.114C450.03 181.765 445.917 175.139 440.29 169.942C430.898 161.274 414.623 154.442 414.623 154.442H353.123Z" stroke="#DA9A3A" stroke-width="2"/>
<path d="M384.123 185.442V219.551H407.523C410.339 218.583 412.967 217.136 415.292 215.275C417.466 213.272 419.271 210.902 420.625 208.275V197.035C419.195 194.327 417.401 191.828 415.292 189.608C413.448 187.879 411.252 186.569 408.854 185.767H384.123" stroke="#DA9A3A" stroke-width="2"/>
<path d="M390.123 191.442V214.275H405.786C407.671 213.627 409.43 212.659 410.986 211.413C412.441 210.072 413.649 208.486 414.556 206.727V199.203C413.599 197.391 412.398 195.718 410.986 194.232C409.752 193.074 408.283 192.197 406.679 191.659H390.123" stroke="#DA9A3A" stroke-width="2"/>
<path d="M484.561 227.286L499.999 243.098L514.509 227.442H527.623L505.79 249.127L526.731 271.009C526.731 271.009 527.331 271.582 527.268 271.816C527.205 272.05 526.479 271.942 526.479 271.942H514.509L499.999 254.442L484.623 271.942H473.054C473.054 271.942 472.78 271.821 472.745 271.635C472.71 271.449 472.914 271.196 472.914 271.196L493.59 249.127L473.113 228.354C473.113 228.354 472.606 227.857 472.823 227.63C473.04 227.403 473.995 227.442 473.995 227.442H484.295" fill="#DA9A3A"/>
<path d="M484.561 227.286L499.999 243.098L514.509 227.442H527.623L505.79 249.127L526.731 271.009C526.731 271.009 527.331 271.582 527.268 271.816C527.205 272.05 526.479 271.942 526.479 271.942H514.509L499.999 254.442L484.623 271.942H473.054C473.054 271.942 472.78 271.821 472.745 271.635C472.71 271.449 472.914 271.196 472.914 271.196L493.59 249.127L473.113 228.354C473.113 228.354 472.606 227.857 472.823 227.63C473.04 227.403 473.995 227.442 473.995 227.442H484.295" stroke="#DA9A3A" stroke-width="2"/>
<path d="M113.27 39.285C108.059 34.8868 102.292 31.1931 96.1181 28.299C86.4071 23.88 82.0011 21.609 75.2241 20.394C68.4471 19.179 55.4361 18.837 48.6851 20.394C41.9341 21.951 37.7441 24.357 28.5451 29.992C22.6539 33.7639 17.4851 38.5595 13.2831 44.152C10.1062 47.9358 7.51101 52.172 5.58307 56.721C3.59613 61.9946 2.19244 67.4699 1.39707 73.049C0.834706 76.1082 0.53362 79.2097 0.49707 82.32C0.543979 85.5254 0.844923 88.7221 1.39707 91.88C1.39707 91.88 3.36207 103.26 7.84007 111.871C10.7847 117.326 14.6674 122.219 19.3101 126.326C22.942 130.392 27.4068 133.629 32.4011 135.816C40.6101 139.366 52.7891 140.525 52.7891 140.525H73.5691C73.5691 140.525 87.9241 138.325 97.8491 134.397C103.56 132.224 108.797 128.967 113.271 124.806V78.182H85.1191V109.413C85.1191 109.413 66.4501 116.831 52.7881 112.838C39.1261 108.845 30.5721 92.233 32.4001 75.741C34.2281 59.249 50.7001 47.077 60.1001 46.872C69.5001 46.667 72.8441 46.806 82.2801 49.792C88.0526 51.6563 93.3609 54.7311 97.8501 58.811L113.27 39.285Z" fill="#DA9A3A" stroke="#DA9A3A"/>
</g>
<defs>
<clipPath id="clip0">
<rect width="530.049" height="292.755" fill="white"/>
</clipPath>
</defs>
</svg>
